<svg xmlns="http://www.w3.org/2000/svg" width="21.06" height="12.281" viewBox="0 0 21.06 12.281">
  <defs>
    <style>
      .cls-1 {
        fill: #fff;
        fill-rule: evenodd;
      }
    </style>
  </defs>
  <path id="down_arrow" data-name="down arrow" class="cls-1" d="M1396.47,153.33a3.323,3.323,0,0,1,1.21-1.408,1.086,1.086,0,0,1,1.36.06c0.08,0.07.16,0.14,0.23,0.209q3.78,3.747,7.54,7.492a1.8,1.8,0,0,1,.16.2,2.314,2.314,0,0,0,.21-0.19q3.81-3.776,7.6-7.552a1.219,1.219,0,0,1,1.27-.359,3.548,3.548,0,0,1,1.43,1.458,1.069,1.069,0,0,1-.18.989,1.434,1.434,0,0,1-.2.23q-4.59,4.554-9.18,9.12a1.177,1.177,0,0,1-1.49.26,1.835,1.835,0,0,1-.34-0.27q-4.59-4.555-9.18-9.12a4.292,4.292,0,0,1-.44-0.669v-0.45h0Z" transform="translate(-1396.47 -151.719)"/>
</svg>
